<?xml version="1.0" encoding="utf-8"?>
<!-- Svg Vector Icons : http://www.onlinewebfonts.com/icon -->
<!DOCTYPE svg PUBLIC "-//W3C//DTD SVG 1.1//EN" "http://www.w3.org/Graphics/SVG/1.1/DTD/svg11.dtd">
<svg version="1.1" xmlns="http://www.w3.org/2000/svg" xmlns:xlink="http://www.w3.org/1999/xlink" x="0px" y="0px" viewBox="0 0 1000 1000" enable-background="new 0 0 1000 1000" xml:space="preserve">
<metadata> Svg Vector Icons : http://www.onlinewebfonts.com/icon </metadata>
<g><path d="M509,469.4H262.5c-8.2,0-14.9,6.9-14.9,15.3v30.6c0,8.5,6.7,15.3,14.9,15.3h191C468.9,506.7,486.1,484.6,509,469.4z"/><path d="M399.6,653.1H262.5c-8.2,0-14.9,6.9-14.9,15.3v30.6c0,8.5,6.7,15.3,14.9,15.3h127.3c-0.2-11.6-0.1-23.1,2.4-34.7c0.1-0.6,4.6-21.2,3.2-7.9C396.1,665.3,397.7,659.1,399.6,653.1z"/><path d="M574.4,331.6v-30.6c0-8.5-6.6-15.3-14.9-15.3H262.5c-8.2,0-14.9,6.9-14.9,15.3v30.6c0,8.4,6.7,15.3,14.9,15.3h297.1C567.8,346.9,574.4,340,574.4,331.6z"/><path d="M723.8,457.5c-147,0-266.2,119.2-266.2,266.3c0,147,119.2,266.3,266.2,266.3c147,0,266.2-119.2,266.2-266.2C990,576.7,870.8,457.5,723.8,457.5z M869.4,660.5L695.8,834.1c-4.1,4.1-10.7,4.1-14.7,0L578.3,731c-4.1-4.1-4.1-10.7,0-14.7l32.3-32.4c4.1-4.1,10.7-4.1,14.7,0l63.2,63.2l133.8-133.8c4-4.1,10.6-4.1,14.7,0l32.3,32.3C873.4,649.8,873.4,656.4,869.4,660.5z"/><path d="M455.9,928.8H99.1c-16.4,0-29.7-13.7-29.7-30.6V682.6V531.5V101.9c0-16.9,13.4-30.6,29.7-30.6H723c16.4,0,29.7,13.7,29.7,30.6v285.6c20.4,1.7,40.2,5.4,59.4,10.6V71.3c0-33.8-26.6-61.3-59.4-61.3H69.4C36.6,10,10,37.4,10,71.3c0,0,0,237.3,0,462.5c0,51.3,0,101.9,0,148.9c0,138.7,0,246,0,246c0,33.8,26.6,61.3,59.4,61.3h447.2C493.8,972.2,473.4,951.7,455.9,928.8z"/></g>
</svg>